<svg width="24" height="24" viewBox="0 0 24 24" fill="none" xmlns="http://www.w3.org/2000/svg">
<path fill-rule="evenodd" clip-rule="evenodd" d="M20.6677 9.9043H2.84375C2.42975 9.9043 2.09375 9.5683 2.09375 9.1543C2.09375 8.7403 2.42975 8.4043 2.84375 8.4043H20.6677C21.0817 8.4043 21.4177 8.7403 21.4177 9.1543C21.4177 9.5683 21.0817 9.9043 20.6677 9.9043Z" fill="#2F2C2B"/>
<path fill-rule="evenodd" clip-rule="evenodd" d="M16.1993 13.8105C15.7853 13.8105 15.4453 13.4745 15.4453 13.0605C15.4453 12.6465 15.7763 12.3105 16.1903 12.3105H16.1993C16.6133 12.3105 16.9493 12.6465 16.9493 13.0605C16.9493 13.4745 16.6133 13.8105 16.1993 13.8105Z" fill="#2F2C2B"/>
<path fill-rule="evenodd" clip-rule="evenodd" d="M11.7618 13.8105C11.3478 13.8105 11.0078 13.4745 11.0078 13.0605C11.0078 12.6465 11.3388 12.3105 11.7528 12.3105H11.7618C12.1758 12.3105 12.5118 12.6465 12.5118 13.0605C12.5118 13.4745 12.1758 13.8105 11.7618 13.8105Z" fill="#2F2C2B"/>
<path fill-rule="evenodd" clip-rule="evenodd" d="M7.3175 13.8105C6.9035 13.8105 6.5625 13.4745 6.5625 13.0605C6.5625 12.6465 6.8945 12.3105 7.3085 12.3105H7.3175C7.7315 12.3105 8.0675 12.6465 8.0675 13.0605C8.0675 13.4745 7.7315 13.8105 7.3175 13.8105Z" fill="#2F2C2B"/>
<path fill-rule="evenodd" clip-rule="evenodd" d="M16.1993 17.6973C15.7853 17.6973 15.4453 17.3613 15.4453 16.9473C15.4453 16.5333 15.7763 16.1973 16.1903 16.1973H16.1993C16.6133 16.1973 16.9493 16.5333 16.9493 16.9473C16.9493 17.3613 16.6133 17.6973 16.1993 17.6973Z" fill="#2F2C2B"/>
<path fill-rule="evenodd" clip-rule="evenodd" d="M11.7618 17.6973C11.3478 17.6973 11.0078 17.3613 11.0078 16.9473C11.0078 16.5333 11.3388 16.1973 11.7528 16.1973H11.7618C12.1758 16.1973 12.5118 16.5333 12.5118 16.9473C12.5118 17.3613 12.1758 17.6973 11.7618 17.6973Z" fill="#2F2C2B"/>
<path fill-rule="evenodd" clip-rule="evenodd" d="M7.3175 17.6973C6.9035 17.6973 6.5625 17.3613 6.5625 16.9473C6.5625 16.5333 6.8945 16.1973 7.3085 16.1973H7.3175C7.7315 16.1973 8.0675 16.5333 8.0675 16.9473C8.0675 17.3613 7.7315 17.6973 7.3175 17.6973Z" fill="#2F2C2B"/>
<path fill-rule="evenodd" clip-rule="evenodd" d="M15.7969 5.791C15.3829 5.791 15.0469 5.455 15.0469 5.041V1.75C15.0469 1.336 15.3829 1 15.7969 1C16.2109 1 16.5469 1.336 16.5469 1.75V5.041C16.5469 5.455 16.2109 5.791 15.7969 5.791Z" fill="#2F2C2B"/>
<path fill-rule="evenodd" clip-rule="evenodd" d="M7.71875 5.791C7.30475 5.791 6.96875 5.455 6.96875 5.041V1.75C6.96875 1.336 7.30475 1 7.71875 1C8.13275 1 8.46875 1.336 8.46875 1.75V5.041C8.46875 5.455 8.13275 5.791 7.71875 5.791Z" fill="#2F2C2B"/>
<mask id="mask0_1861_6215" style="mask-type:luminance" maskUnits="userSpaceOnUse" x="2" y="2" width="20" height="21">
<path fill-rule="evenodd" clip-rule="evenodd" d="M2 2.57812H21.5V22.499H2V2.57812Z" fill="white"/>
</mask>
<g mask="url(#mask0_1861_6215)">
<path fill-rule="evenodd" clip-rule="evenodd" d="M7.521 4.07812C4.928 4.07812 3.5 5.46113 3.5 7.97213V17.0211C3.5 19.5871 4.928 20.9991 7.521 20.9991H15.979C18.572 20.9991 20 19.6131 20 17.0971V7.97213C20.004 6.73712 19.672 5.77713 19.013 5.11713C18.335 4.43712 17.29 4.07812 15.988 4.07812H7.521ZM15.979 22.4991H7.521C4.116 22.4991 2 20.4001 2 17.0211V7.97213C2 4.64412 4.116 2.57812 7.521 2.57812H15.988C17.697 2.57812 19.11 3.09012 20.075 4.05712C21.012 4.99813 21.505 6.35112 21.5 7.97412V17.0971C21.5 20.4291 19.384 22.4991 15.979 22.4991Z" fill="#2F2C2B"/>
</g>
</svg>
