<svg width="24" height="24" viewBox="0 0 24 24" fill="none" xmlns="http://www.w3.org/2000/svg">
<mask id="mask0_2016_6414" style="mask-type:luminance" maskUnits="userSpaceOnUse" x="1" y="1" width="22" height="22">
<path fill-rule="evenodd" clip-rule="evenodd" d="M1 1H22.493V22.4938H1V1Z" fill="white"/>
</mask>
<g mask="url(#mask0_2016_6414)">
<path fill-rule="evenodd" clip-rule="evenodd" d="M6.10844 19.675C6.68844 19.675 7.23544 19.895 7.81444 20.128C11.3614 21.768 15.5564 21.022 18.2894 18.29C21.8954 14.682 21.8954 8.813 18.2894 5.207C16.5434 3.461 14.2214 2.5 11.7494 2.5C9.27644 2.5 6.95344 3.462 5.20844 5.208C2.47444 7.94 1.73044 12.135 3.35544 15.648C3.58944 16.227 3.81544 16.791 3.81544 17.377C3.81544 17.962 3.61444 18.551 3.43744 19.071C3.29144 19.499 3.07044 20.145 3.21244 20.287C3.35144 20.431 4.00144 20.204 4.43044 20.057C4.94544 19.881 5.52944 19.679 6.10844 19.675ZM11.7244 22.494C10.1964 22.494 8.65844 22.171 7.21944 21.505C6.79544 21.335 6.39844 21.175 6.11344 21.175C5.78544 21.177 5.34444 21.329 4.91844 21.476C4.04444 21.776 2.95644 22.15 2.15144 21.348C1.34944 20.545 1.71944 19.46 2.01744 18.587C2.16444 18.157 2.31544 17.713 2.31544 17.377C2.31544 17.101 2.18244 16.749 1.97844 16.242C0.105437 12.197 0.971437 7.322 4.14844 4.147C6.17644 2.118 8.87544 1 11.7484 1C14.6214 1 17.3214 2.117 19.3494 4.146C23.5414 8.338 23.5414 15.158 19.3494 19.35C17.2944 21.406 14.5274 22.494 11.7244 22.494Z" fill="#2F2C2B"/>
</g>
<path fill-rule="evenodd" clip-rule="evenodd" d="M15.6993 13.1621C15.1473 13.1621 14.6953 12.7151 14.6953 12.1621C14.6953 11.6091 15.1383 11.1621 15.6903 11.1621H15.6993C16.2513 11.1621 16.6993 11.6091 16.6993 12.1621C16.6993 12.7151 16.2513 13.1621 15.6993 13.1621Z" fill="#2F2C2B"/>
<path fill-rule="evenodd" clip-rule="evenodd" d="M11.6837 13.1621C11.1317 13.1621 10.6797 12.7151 10.6797 12.1621C10.6797 11.6091 11.1217 11.1621 11.6747 11.1621H11.6837C12.2357 11.1621 12.6837 11.6091 12.6837 12.1621C12.6837 12.7151 12.2357 13.1621 11.6837 13.1621Z" fill="#2F2C2B"/>
<path fill-rule="evenodd" clip-rule="evenodd" d="M7.67587 13.1621C7.12387 13.1621 6.67188 12.7151 6.67188 12.1621C6.67188 11.6091 7.11488 11.1621 7.66688 11.1621H7.67587C8.22787 11.1621 8.67587 11.6091 8.67587 12.1621C8.67587 12.7151 8.22787 13.1621 7.67587 13.1621Z" fill="#2F2C2B"/>
</svg>
