<svg width="74" height="74" viewBox="0 0 74 74" fill="none" xmlns="http://www.w3.org/2000/svg">
<path fill-rule="evenodd" clip-rule="evenodd" d="M36.9974 10.791C22.5458 10.791 10.7891 22.5478 10.7891 36.9993C10.7891 51.4509 22.5458 63.2077 36.9974 63.2077C51.449 63.2077 63.2057 51.4509 63.2057 36.9993C63.2057 22.5478 51.449 10.791 36.9974 10.791ZM36.9974 67.8327C19.9959 67.8327 6.16406 54.0009 6.16406 36.9994C6.16406 19.9978 19.9959 6.16602 36.9974 6.16602C53.9989 6.16602 67.8307 19.9978 67.8307 36.9994C67.8307 54.0009 53.9989 67.8327 36.9974 67.8327Z" fill="#D9D9D9"/>
<path fill-rule="evenodd" clip-rule="evenodd" d="M36.9766 41.2327C35.7001 41.2327 34.6641 40.1967 34.6641 38.9202V25.2949C34.6641 24.0184 35.7001 22.9824 36.9766 22.9824C38.2531 22.9824 39.2891 24.0184 39.2891 25.2949V38.9202C39.2891 40.1967 38.2531 41.2327 36.9766 41.2327Z" fill="#D9D9D9"/>
<path fill-rule="evenodd" clip-rule="evenodd" d="M37.0128 51.7858C35.3077 51.7858 33.9141 50.4076 33.9141 48.7025C33.9141 46.9974 35.28 45.6191 36.982 45.6191H37.0128C38.7179 45.6191 40.0961 46.9974 40.0961 48.7025C40.0961 50.4076 38.7179 51.7858 37.0128 51.7858Z" fill="#D9D9D9"/>
</svg>
