<svg width="24" height="24" viewBox="0 0 24 24" fill="none" xmlns="http://www.w3.org/2000/svg">
<path fill-rule="evenodd" clip-rule="evenodd" d="M10.0823 18.5918H3.78125C3.36725 18.5918 3.03125 18.2558 3.03125 17.8418C3.03125 17.4278 3.36725 17.0918 3.78125 17.0918H10.0823C10.4963 17.0918 10.8323 17.4278 10.8323 17.8418C10.8323 18.2558 10.4963 18.5918 10.0823 18.5918Z" fill="#00A980"/>
<path fill-rule="evenodd" clip-rule="evenodd" d="M19.1906 8.90039H12.8906C12.4766 8.90039 12.1406 8.56439 12.1406 8.15039C12.1406 7.73639 12.4766 7.40039 12.8906 7.40039H19.1906C19.6046 7.40039 19.9406 7.73639 19.9406 8.15039C19.9406 8.56439 19.6046 8.90039 19.1906 8.90039Z" fill="#00A980"/>
<mask id="mask0_2016_6385" style="mask-type:luminance" maskUnits="userSpaceOnUse" x="3" y="5" width="7" height="7">
<path fill-rule="evenodd" clip-rule="evenodd" d="M3 5H9.2258V11.1916H3V5Z" fill="white"/>
</mask>
<g mask="url(#mask0_2016_6385)">
<path fill-rule="evenodd" clip-rule="evenodd" d="M6.113 6.5C5.224 6.5 4.5 7.216 4.5 8.097C4.5 8.977 5.224 9.692 6.113 9.692C7.003 9.692 7.726 8.977 7.726 8.097C7.726 7.216 7.003 6.5 6.113 6.5ZM6.113 11.192C4.397 11.192 3 9.804 3 8.097C3 6.39 4.397 5 6.113 5C7.83 5 9.226 6.39 9.226 8.097C9.226 9.804 7.83 11.192 6.113 11.192Z" fill="#00A980"/>
</g>
<path fill-rule="evenodd" clip-rule="evenodd" d="M17.3874 16.207C16.4974 16.207 15.7734 16.923 15.7734 17.803C15.7734 18.684 16.4974 19.399 17.3874 19.399C18.2764 19.399 18.9994 18.684 18.9994 17.803C18.9994 16.923 18.2764 16.207 17.3874 16.207ZM17.3874 20.899C15.6704 20.899 14.2734 19.51 14.2734 17.803C14.2734 16.096 15.6704 14.707 17.3874 14.707C19.1034 14.707 20.4994 16.096 20.4994 17.803C20.4994 19.51 19.1034 20.899 17.3874 20.899Z" fill="#00A980"/>
</svg>
