<svg width="24" height="24" viewBox="0 0 24 24" fill="none" xmlns="http://www.w3.org/2000/svg">
<path fill-rule="evenodd" clip-rule="evenodd" d="M7.665 3.5C5.135 3.5 3.5 5.233 3.5 7.916V16.084C3.5 18.767 5.135 20.5 7.665 20.5H16.333C18.864 20.5 20.5 18.767 20.5 16.084V7.916C20.5 5.233 18.864 3.5 16.334 3.5H7.665ZM16.333 22H7.665C4.276 22 2 19.622 2 16.084V7.916C2 4.378 4.276 2 7.665 2H16.334C19.723 2 22 4.378 22 7.916V16.084C22 19.622 19.723 22 16.333 22Z" fill="#2F2C2B"/>
<path fill-rule="evenodd" clip-rule="evenodd" d="M10.8112 15.1227C10.6202 15.1227 10.4272 15.0497 10.2812 14.9027L7.90725 12.5297C7.61425 12.2367 7.61425 11.7627 7.90725 11.4697C8.20025 11.1767 8.67425 11.1767 8.96725 11.4697L10.8112 13.3117L15.0272 9.0967C15.3203 8.8037 15.7942 8.8037 16.0872 9.0967C16.3802 9.3897 16.3802 9.8637 16.0872 10.1567L11.3412 14.9027C11.1953 15.0497 11.0032 15.1227 10.8112 15.1227Z" fill="#2F2C2B"/>
</svg>
