<svg width="24" height="24" viewBox="0 0 24 24" fill="none" xmlns="http://www.w3.org/2000/svg">
<path fill-rule="evenodd" clip-rule="evenodd" d="M7.665 3.5C5.135 3.5 3.5 5.233 3.5 7.916V16.084C3.5 18.767 5.135 20.5 7.665 20.5H16.333C18.864 20.5 20.5 18.767 20.5 16.084V7.916C20.5 5.233 18.865 3.5 16.334 3.5H7.665ZM16.333 22H7.665C4.276 22 2 19.622 2 16.084V7.916C2 4.378 4.276 2 7.665 2H16.334C19.723 2 22 4.378 22 7.916V16.084C22 19.622 19.723 22 16.333 22Z" fill="#00A980"/>
<path fill-rule="evenodd" clip-rule="evenodd" d="M15.391 14.7668C15.26 14.7668 15.128 14.7328 15.007 14.6618L11.616 12.6388C11.39 12.5028 11.25 12.2578 11.25 11.9948V7.63281C11.25 7.21881 11.586 6.88281 12 6.88281C12.414 6.88281 12.75 7.21881 12.75 7.63281V11.5688L15.776 13.3718C16.131 13.5848 16.248 14.0448 16.036 14.4008C15.895 14.6358 15.646 14.7668 15.391 14.7668Z" fill="#00A980"/>
</svg>
