<svg width="115" height="27" viewBox="0 0 115 27" fill="none" xmlns="http://www.w3.org/2000/svg">
<path d="M104.083 11.4701H104.72L108.958 6.16183H114.158L107.97 13.6774H106.792L104.07 16.9274L104.083 11.4701ZM99.9531 1.25977H104.517V20.868H99.9531V1.25977ZM105.153 14.6931L108.159 11.4566L114.375 20.868H109.094L105.153 14.6931Z" fill="white"/>
<path d="M87.5635 20.8684H83V6.16224H87.3333V8.82994H87.4823C87.8253 7.94522 88.3851 7.25008 89.1614 6.74453C89.9378 6.22995 90.8677 5.97266 91.951 5.97266C92.9802 5.97266 93.8784 6.20286 94.6458 6.66328C95.4132 7.11467 96.0045 7.75564 96.4197 8.58619C96.844 9.41674 97.0562 10.3827 97.0562 11.4841V20.8684H92.4927V12.3643C92.4927 11.8046 92.3979 11.3306 92.2083 10.9424C92.0277 10.5542 91.7569 10.2518 91.3958 10.0351C91.0347 9.81848 90.5968 9.71014 90.0823 9.71014C89.5767 9.71014 89.1344 9.82299 88.7552 10.0487C88.376 10.2653 88.0826 10.5768 87.875 10.9831C87.6673 11.3893 87.5635 11.8768 87.5635 12.4456V20.8684Z" fill="white"/>
<path d="M75.4911 6.16144H80.0547V20.8676H75.4911V6.16144ZM77.7661 4.40103C77.3418 4.40103 76.9491 4.30172 76.588 4.10311C76.2269 3.9045 75.9335 3.63818 75.7078 3.30416C75.4911 2.9611 75.3828 2.59548 75.3828 2.20728C75.3828 1.80104 75.4911 1.4309 75.7078 1.09687C75.9335 0.762845 76.2269 0.496526 76.588 0.297916C76.9491 0.0993052 77.3418 0 77.7661 0C78.1995 0 78.5967 0.0993052 78.9578 0.297916C79.3189 0.496526 79.6033 0.762845 79.8109 1.09687C80.0276 1.4309 80.1359 1.80104 80.1359 2.20728C80.1359 2.59548 80.0276 2.9611 79.8109 3.30416C79.6033 3.63818 79.3189 3.9045 78.9578 4.10311C78.5967 4.30172 78.1995 4.40103 77.7661 4.40103Z" fill="white"/>
<path d="M72.5557 20.868H67.9922V1.25977H72.5557V20.868Z" fill="white"/>
<path d="M50.875 6.16224H55.3708V8.68098H55.5469C55.7635 8.1664 56.0479 7.71501 56.4 7.32682C56.7521 6.9296 57.2034 6.6046 57.7541 6.35182C58.3139 6.09904 58.9593 5.97266 59.6906 5.97266C60.7739 5.97266 61.7579 6.248 62.6427 6.7987C63.5274 7.34939 64.2361 8.19348 64.7687 9.33098C65.3013 10.4594 65.5677 11.8542 65.5677 13.5153C65.5677 15.1313 65.3104 16.5125 64.7958 17.6591C64.2902 18.7966 63.5906 19.6542 62.6968 20.232C61.8031 20.8007 60.7965 21.0851 59.6771 21.0851C58.9639 21.0851 58.3319 20.9677 57.7812 20.733C57.2305 20.4893 56.7746 20.1778 56.4135 19.7986C56.0614 19.4195 55.7726 18.9862 55.5469 18.4987H55.4385V26.3934H50.875V6.16224ZM55.3167 13.5018C55.3167 14.3053 55.4295 15.0094 55.6552 15.6143C55.8809 16.2191 56.2014 16.6886 56.6166 17.0226C57.041 17.3476 57.5465 17.5101 58.1333 17.5101C58.7201 17.5101 59.2212 17.3431 59.6364 17.0091C60.0517 16.675 60.3677 16.2101 60.5843 15.6143C60.801 15.0094 60.9093 14.3053 60.9093 13.5018C60.9093 12.6983 60.801 11.9987 60.5843 11.4028C60.3677 10.807 60.0517 10.3511 59.6364 10.0351C59.2212 9.71014 58.7201 9.54764 58.1333 9.54764C57.5375 9.54764 57.0319 9.70563 56.6166 10.0216C56.2014 10.3376 55.8809 10.7935 55.6552 11.3893C55.4295 11.9851 55.3167 12.6893 55.3167 13.5018Z" fill="white"/>
<path d="M43.7239 14.6799C43.2906 14.6889 42.7038 14.716 41.9635 14.7612L40.7448 14.8695C40.158 14.9237 39.693 15.1042 39.35 15.4112C39.016 15.7181 38.8489 16.1063 38.8489 16.5757C38.8489 16.8917 38.9302 17.1671 39.0927 17.4018C39.2552 17.6275 39.4809 17.799 39.7698 17.9164C40.0587 18.0337 40.3882 18.0924 40.7583 18.0924C41.2729 18.0924 41.7423 17.9886 42.1666 17.7809C42.5909 17.5643 42.925 17.2709 43.1687 16.9007C43.4125 16.5216 43.5343 16.1018 43.5343 15.6414L43.4937 10.8341C43.4937 10.491 43.417 10.1976 43.2635 9.95389C43.11 9.70112 42.8798 9.51605 42.5729 9.39869C42.2659 9.2723 41.9048 9.2091 41.4896 9.2091C40.8937 9.2091 40.4062 9.34001 40.0271 9.60181C39.6479 9.85459 39.4177 10.2247 39.3364 10.7122H35.0573C35.1385 9.8275 35.4365 9.02403 35.951 8.30181C36.4746 7.5796 37.2104 7.01085 38.1583 6.59557C39.1153 6.18029 40.2573 5.97266 41.5844 5.97266C42.8212 5.97266 43.927 6.16675 44.902 6.55495C45.8861 6.93411 46.6579 7.49383 47.2177 8.23411C47.7864 8.97438 48.0708 9.8591 48.0708 10.8883V20.8684H43.7646V18.8237H43.6562C43.3944 19.3112 43.0604 19.7264 42.6541 20.0695C42.2479 20.4035 41.7739 20.6608 41.2323 20.8414C40.6906 21.0219 40.0677 21.1122 39.3635 21.1122C38.4156 21.1122 37.576 20.9497 36.8448 20.6247C36.1226 20.2997 35.5538 19.8122 35.1385 19.1622C34.7233 18.5122 34.5156 17.7178 34.5156 16.7789C34.5156 15.2442 35.0167 14.1202 36.0187 13.407C37.0208 12.6848 38.3344 12.274 39.9594 12.1747C40.2663 12.1476 41.0923 12.107 42.4375 12.0528L43.6968 11.9987L43.7239 14.6799Z" fill="white"/>
<path d="M22.8292 20.8684H18.2656V6.16224H22.5989V8.82994H22.7479C23.091 7.94522 23.6507 7.25008 24.4271 6.74453C25.2034 6.22995 26.1333 5.97266 27.2166 5.97266C28.2458 5.97266 29.1441 6.20286 29.9114 6.66328C30.6788 7.11467 31.2701 7.75564 31.6854 8.58619C32.1097 9.41674 32.3218 10.3827 32.3218 11.4841V20.8684H27.7583V12.3643C27.7583 11.8046 27.6635 11.3306 27.4739 10.9424C27.2934 10.5542 27.0225 10.2518 26.6614 10.0351C26.3003 9.81848 25.8625 9.71014 25.3479 9.71014C24.8423 9.71014 24.4 9.82299 24.0208 10.0487C23.6416 10.2653 23.3482 10.5768 23.1406 10.9831C22.933 11.3893 22.8292 11.8768 22.8292 12.4456V20.8684Z" fill="white"/>
<path d="M11.1989 7.08201C11.1538 6.60354 11.0093 6.19278 10.7656 5.84972C10.5218 5.50667 10.1788 5.24938 9.73642 5.07785C9.29407 4.8973 8.75691 4.80702 8.12497 4.80702C7.52011 4.80702 7.00553 4.88827 6.58123 5.05077C6.15692 5.21327 5.83644 5.43896 5.61977 5.72785C5.40311 6.01674 5.29477 6.35076 5.29477 6.72993C5.27672 7.29868 5.51595 7.75458 6.01248 8.09763C6.50901 8.43166 7.24025 8.71152 8.20622 8.93721L9.91247 9.31638C11.8805 9.74971 13.3656 10.4494 14.3677 11.4153C15.3697 12.3723 15.8798 13.6271 15.8979 15.1799C15.8979 16.4077 15.5864 17.4684 14.9635 18.3622C14.3406 19.2469 13.4513 19.9285 12.2958 20.407C11.1402 20.8764 9.75448 21.1111 8.13851 21.1111C6.48644 21.1111 5.05554 20.8629 3.84582 20.3663C2.6361 19.8698 1.70173 19.125 1.0427 18.132C0.383679 17.1299 0.036111 15.8886 0 14.408H4.44165C4.48679 15.0309 4.66283 15.5591 4.96977 15.9924C5.27672 16.4167 5.69651 16.7372 6.22915 16.9539C6.76178 17.1705 7.37567 17.2789 8.07081 17.2789C8.7208 17.2789 9.28052 17.1886 9.74997 17.008C10.2194 16.8275 10.576 16.5792 10.8198 16.2632C11.0725 15.9473 11.1989 15.5816 11.1989 15.1664C11.1989 14.7962 11.0861 14.4757 10.8604 14.2049C10.6347 13.9341 10.2916 13.6993 9.83122 13.5007C9.3708 13.3021 8.76594 13.1171 8.01664 12.9455L5.95831 12.458C4.1979 12.0608 2.85277 11.4198 1.92291 10.5351C0.993052 9.6504 0.528123 8.48582 0.528123 7.04139C0.528123 5.84972 0.853122 4.79799 1.50312 3.88619C2.15312 2.97439 3.05589 2.26571 4.21144 1.76015C5.367 1.24557 6.68053 0.988281 8.15205 0.988281C9.64163 0.988281 10.9461 1.24106 12.0656 1.74661C13.1941 2.25217 14.0652 2.96536 14.6791 3.88619C15.302 4.80702 15.618 5.87229 15.627 7.08201H11.1989Z" fill="white"/>
</svg>
