<svg width="245" height="56" viewBox="0 0 245 56" fill="none" xmlns="http://www.w3.org/2000/svg">
<path d="M222.878 23.8702H224.246L233.357 12.5H244.534L231.232 28.5981H228.7L222.849 35.5594L222.878 23.8702ZM214 2H223.809V44H214V2ZM225.177 30.7735L231.639 23.8412L245 44H233.648L225.177 30.7735Z" fill="#00A980"/>
<path d="M187.74 44H178V12.4073H187.249V18.1382H187.566C188.299 16.2376 189.493 14.7442 191.15 13.6582C192.807 12.5527 194.792 12 197.104 12C199.301 12 201.218 12.4945 202.855 13.4836C204.493 14.4533 205.755 15.8303 206.642 17.6145C207.547 19.3988 208 21.4739 208 23.84V44H198.26V25.7309C198.26 24.5285 198.058 23.5103 197.653 22.6764C197.268 21.8424 196.69 21.1927 195.919 20.7273C195.148 20.2618 194.214 20.0291 193.116 20.0291C192.037 20.0291 191.092 20.2715 190.283 20.7564C189.474 21.2218 188.848 21.8909 188.405 22.7636C187.961 23.6364 187.74 24.6836 187.74 25.9055V44Z" fill="#00A980"/>
<path d="M161.251 13.5821H171.812V46H161.251V13.5821ZM166.516 9.70149C165.534 9.70149 164.625 9.48259 163.789 9.04478C162.953 8.60697 162.274 8.0199 161.752 7.28358C161.251 6.52736 161 5.72139 161 4.86567C161 3.97015 161.251 3.15423 161.752 2.41791C162.274 1.68159 162.953 1.09453 163.789 0.656716C164.625 0.218905 165.534 0 166.516 0C167.519 0 168.438 0.218905 169.274 0.656716C170.109 1.09453 170.767 1.68159 171.248 2.41791C171.749 3.15423 172 3.97015 172 4.86567C172 5.72139 171.749 6.52736 171.248 7.28358C170.767 8.0199 170.109 8.60697 169.274 9.04478C168.438 9.48259 167.519 9.70149 166.516 9.70149Z" fill="#00A980"/>
<path d="M156 45H146V2H156V45Z" fill="#00A980"/>
<path d="M109 12.4085H118.792V17.8355H119.175C119.647 16.7268 120.266 15.7542 121.033 14.9178C121.8 14.0619 122.783 13.3616 123.982 12.817C125.202 12.2723 126.607 12 128.2 12C130.559 12 132.703 12.5933 134.629 13.7798C136.556 14.9664 138.1 16.7851 139.26 19.2361C140.42 21.6676 141 24.6729 141 28.252C141 31.7339 140.44 34.71 139.319 37.1804C138.218 39.6313 136.694 41.4792 134.747 42.7241C132.801 43.9496 130.609 44.5623 128.171 44.5623C126.617 44.5623 125.241 44.3095 124.041 43.8037C122.842 43.2785 121.849 42.6074 121.063 41.7905C120.296 40.9735 119.667 40.0398 119.175 38.9894H118.939V56H109V12.4085ZM118.674 28.2228C118.674 29.954 118.92 31.4713 119.411 32.7745C119.903 34.0778 120.601 35.0893 121.505 35.809C122.429 36.5093 123.53 36.8594 124.808 36.8594C126.086 36.8594 127.178 36.4996 128.082 35.7798C128.986 35.0601 129.675 34.0584 130.147 32.7745C130.618 31.4713 130.854 29.954 130.854 28.2228C130.854 26.4916 130.618 24.9841 130.147 23.7003C129.675 22.4164 128.986 21.4341 128.082 20.7533C127.178 20.0531 126.086 19.7029 124.808 19.7029C123.511 19.7029 122.41 20.0433 121.505 20.7241C120.601 21.405 119.903 22.3873 119.411 23.6711C118.92 24.9549 118.674 26.4721 118.674 28.2228Z" fill="#00A980"/>
<path d="M93.7003 30.9794C92.7732 30.9991 91.5178 31.0581 89.9341 31.1565L87.3267 31.3927C86.0713 31.5107 85.0766 31.9043 84.3427 32.5733C83.628 33.2424 83.2707 34.0886 83.2707 35.1118C83.2707 35.8005 83.4446 36.4007 83.7922 36.9123C84.1399 37.4043 84.6227 37.7782 85.2408 38.034C85.8588 38.2898 86.5638 38.4177 87.3556 38.4177C88.4565 38.4177 89.4609 38.1914 90.3686 37.7388C91.2764 37.2665 91.991 36.627 92.5125 35.8202C93.034 34.9937 93.2947 34.0787 93.2947 33.0751L93.2078 22.5966C93.2078 21.8488 93.0436 21.2093 92.7153 20.678C92.3869 20.127 91.8944 19.7236 91.2378 19.4678C90.5811 19.1923 89.8085 19.0546 88.9201 19.0546C87.6454 19.0546 86.6024 19.3399 85.7912 19.9106C84.98 20.4615 84.4875 21.2683 84.3137 22.3309H75.1588C75.3327 20.4025 75.97 18.6512 77.0709 17.0769C78.1911 15.5027 79.7652 14.263 81.7932 13.3578C83.8405 12.4526 86.2837 12 89.1229 12C91.7689 12 94.1349 12.4231 96.2208 13.2692C98.326 14.0957 99.9774 15.3157 101.175 16.9293C102.392 18.5429 103 20.4714 103 22.7147V44.4687H93.7872V40.0116H93.5554C92.9953 41.0742 92.2807 41.9794 91.4116 42.7272C90.5425 43.4553 89.5285 44.0161 88.3696 44.4097C87.2108 44.8032 85.8781 45 84.3716 45C82.3437 45 80.5475 44.6458 78.983 43.9374C77.4379 43.229 76.2211 42.1664 75.3327 40.7496C74.4442 39.3327 74 37.6011 74 35.5546C74 32.2093 75.0719 29.7594 77.2158 28.2048C79.3596 26.6306 82.1698 25.7352 85.6464 25.5188C86.303 25.4598 88.0703 25.3712 90.9481 25.2531L93.6424 25.1351L93.7003 30.9794Z" fill="#00A980"/>
<path d="M48.7399 44H39V12.4073H48.2486V18.1382H48.5665C49.2987 16.2376 50.4933 14.7442 52.1503 13.6582C53.8073 12.5527 55.7919 12 58.104 12C60.3006 12 62.2177 12.4945 63.8555 13.4836C65.4933 14.4533 66.7553 15.8303 67.6416 17.6145C68.5472 19.3988 69 21.4739 69 23.84V44H59.2601V25.7309C59.2601 24.5285 59.0578 23.5103 58.6532 22.6764C58.2678 21.8424 57.6898 21.1927 56.9191 20.7273C56.1484 20.2618 55.2139 20.0291 54.1156 20.0291C53.0366 20.0291 52.0925 20.2715 51.2832 20.7564C50.474 21.2218 49.8478 21.8909 49.4046 22.7636C48.9615 23.6364 48.7399 24.6836 48.7399 25.9055V44Z" fill="#00A980"/>
<path d="M23.9506 14.3244C23.8541 13.2782 23.5451 12.38 23.0238 11.6299C22.5026 10.8798 21.7689 10.3172 20.8228 9.94213C19.8768 9.54733 18.728 9.34993 17.3765 9.34993C16.0829 9.34993 14.9824 9.52759 14.075 9.88291C13.1675 10.2382 12.4821 10.7317 12.0187 11.3634C11.5554 11.9951 11.3237 12.7254 11.3237 13.5545C11.2851 14.7981 11.7967 15.795 12.8586 16.5451C13.9205 17.2755 15.4844 17.8874 17.5503 18.3809L21.1993 19.21C25.4083 20.1575 28.5843 21.6873 30.7274 23.7995C32.8705 25.8919 33.9614 28.6357 34 32.031C34 34.7156 33.3339 37.035 32.0017 38.9892C30.6695 40.9237 28.7677 42.4141 26.2964 43.4603C23.8251 44.4868 20.8614 45 17.4055 45C13.8722 45 10.812 44.4572 8.22487 43.3715C5.63771 42.2858 3.63941 40.6572 2.22998 38.4859C0.820557 36.2948 0.0772288 33.5805 0 30.3432H9.49915C9.59568 31.7052 9.97217 32.86 10.6286 33.8075C11.2851 34.7353 12.1828 35.4361 13.322 35.9098C14.4611 36.3836 15.774 36.6205 17.2606 36.6205C18.6508 36.6205 19.8478 36.4231 20.8518 36.0283C21.8558 35.6335 22.6184 35.0906 23.1397 34.3997C23.6803 33.7088 23.9506 32.9094 23.9506 32.0013C23.9506 31.192 23.7093 30.4913 23.2266 29.8991C22.7439 29.3069 22.0102 28.7936 21.0256 28.3594C20.0409 27.9251 18.7473 27.5204 17.1448 27.1454L12.7428 26.0794C8.97785 25.2109 6.10108 23.8093 4.11244 21.8748C2.12379 19.9403 1.12947 17.3939 1.12947 14.2355C1.12947 11.6299 1.82453 9.33019 3.21465 7.33647C4.60477 5.34275 6.53549 3.79318 9.00681 2.68775C11.4781 1.56258 14.2873 1 17.4344 1C20.6201 1 23.41 1.55271 25.8041 2.65814C28.2175 3.76357 30.0806 5.32301 31.3935 7.33647C32.7257 9.34993 33.4015 11.6792 33.4208 14.3244H23.9506Z" fill="#00A980"/>
</svg>
