<svg width="28" height="28" viewBox="0 0 28 28" fill="none" xmlns="http://www.w3.org/2000/svg">
<path d="M26.4929 10.8574C25.6045 9.90034 24.444 8.91475 23.312 7.91487C23.8995 8.48623 24.1144 9.37183 24.0714 10.186C24.0284 11.0145 23.7419 11.8001 23.4553 12.5714C23.9568 13.0142 24.5013 13.5285 24.5156 14.1855C24.5299 14.8426 24.0428 15.3711 23.5699 15.8282C20.9622 18.4279 18.3545 21.0275 15.7467 23.6272C15.2739 24.0986 14.7008 24.6128 14.0273 24.5414C13.5258 24.4842 13.1247 24.1129 12.7808 23.7558C11.4053 22.3845 10.0298 21.0132 8.65425 19.642L4.0119 15.014C3.72534 14.714 3.46743 14.3855 3.35281 14.0141C3.28116 13.6999 3.30982 13.3856 3.42445 13.0857C3.58206 12.7714 3.82564 12.5143 4.08354 12.2572C4.8716 11.4716 5.65965 10.686 6.4477 9.90034L12.3079 4.05821C12.5802 3.8011 12.8811 3.55827 13.225 3.42971C13.2966 3.41543 13.3539 3.40115 13.4255 3.38686C13.5688 3.37258 13.7121 3.37258 13.8554 3.38686C13.8554 3.38686 13.8554 3.38686 13.8697 3.38686C13.9987 3.40115 14.1133 3.444 14.2423 3.48685C14.4858 3.61541 14.7151 3.8011 14.93 4.00107L18.7986 7.85774C19.0709 8.12913 19.3574 8.41481 19.6297 8.6862C19.9162 8.97188 20.0738 9.35755 20.0738 9.77178C20.0738 10.186 19.9162 10.5717 19.6153 10.8716L15.2452 15.2282L17.5807 17.5565L21.9508 13.1999C22.0368 13.1142 22.1228 13.0285 22.1944 12.9285C22.1944 12.9143 22.2231 12.9 22.2374 12.8857C22.309 12.8 22.395 12.7 22.4667 12.6C22.4667 12.6 22.4667 12.5857 22.481 12.5714C22.6243 12.3572 22.7676 12.1429 22.8678 11.9144C22.9108 11.843 22.9395 11.7573 22.9681 11.6858C22.9968 11.6144 23.0255 11.543 23.0541 11.4716V11.443C23.2404 10.9145 23.355 10.3574 23.355 9.77178C23.355 8.50051 22.8678 7.30066 21.9652 6.38649C21.5926 5.94369 21.1628 5.54374 20.7186 5.14379L18.0536 2.48697C17.7383 2.14416 17.4088 1.81563 17.0649 1.50138L17.0219 1.45853C16.6494 1.08715 16.2482 0.80147 15.804 0.572927C15.7754 0.572927 15.761 0.544359 15.7324 0.544359C15.7037 0.530075 15.6608 0.515791 15.6321 0.501507C15.1449 0.244396 14.6148 0.0729887 14.056 0.0158529C13.5545 -0.0269989 13.053 0.015853 12.5659 0.158692C12.4799 0.172976 12.4082 0.201544 12.3223 0.215828C12.3079 0.215828 12.2936 0.215828 12.2793 0.215828C12.093 0.272964 11.9068 0.3301 11.7205 0.401519C11.6918 0.401519 11.6775 0.415803 11.6488 0.430087C11.5772 0.458655 11.5199 0.487223 11.4483 0.515791C11.4196 0.515791 11.4053 0.544359 11.3766 0.558643C10.9324 0.787186 10.5312 1.07286 10.1587 1.44425L10.0154 1.58709C9.49961 2.02989 9.02678 2.50126 8.55395 2.98691C7.29307 4.25818 6.04651 5.52945 4.78563 6.80072L1.40417 10.1717C1.28954 10.286 1.17491 10.4146 1.07462 10.5431C1.04596 10.5717 1.0173 10.6145 0.988648 10.6431C0.974319 10.6574 0.945663 10.686 0.931335 10.7002C0.730739 10.9145 0.601785 11.2145 0.458503 11.4573C0.286564 11.7573 0.15761 12.0858 0.0859694 12.4286C0.0286565 12.7143 0 13.0142 0 13.3142C0 13.3999 0 13.4856 0 13.5856C0 13.7142 -1.33442e-08 13.8427 0.0143282 13.9713C0.0143282 13.9855 0.0143282 14.0141 0.0143282 14.0284C0.0143282 14.1427 0.0429847 14.2712 0.0573129 14.3855C0.0573129 14.4141 0.0573129 14.4283 0.0573129 14.4569C0.0716411 14.5712 0.100298 14.6997 0.128954 14.814C0.128954 14.8283 0.128954 14.8426 0.128954 14.8569C0.15761 14.9854 0.200595 15.0997 0.24358 15.214C0.286564 15.3282 0.329549 15.4568 0.386862 15.5711C0.386862 15.5711 0.386862 15.5996 0.40119 15.6139C0.458503 15.7282 0.515816 15.8282 0.573129 15.9424C0.573129 15.9567 0.587457 15.971 0.601785 15.9853C0.659098 16.0996 0.73074 16.1996 0.802381 16.2995C0.802381 16.2995 0.802381 16.2995 0.802381 16.3138C0.874022 16.4281 0.959991 16.5281 1.04596 16.6281C1.14626 16.7566 1.26088 16.8852 1.38984 16.9995L1.54745 17.1566C2.07759 17.8136 2.69371 18.4136 3.29549 19.0135C4.47041 20.1705 5.65965 21.3275 6.83456 22.4845C7.80888 23.4415 8.76887 24.3843 9.74319 25.3413C10.5886 26.1697 11.4626 27.0125 12.5659 27.441C13.4255 27.7695 14.3855 27.8267 15.2739 27.5839C16.7067 27.1982 17.8386 26.1126 18.8989 25.0556C20.8762 23.0987 22.8535 21.1418 24.8308 19.1849C26.0917 17.9422 27.4242 16.5567 27.6821 14.814C27.8971 13.3856 27.4242 11.8287 26.4499 10.7717L26.4929 10.8574ZM13.1963 3.444C13.2536 3.42971 13.2966 3.41543 13.3539 3.41543C13.2966 3.41543 13.2393 3.42971 13.182 3.45828L13.1963 3.444ZM13.6118 3.38686C13.6118 3.38686 13.4829 3.38686 13.4112 3.40115C13.4829 3.40115 13.5402 3.38686 13.6118 3.38686C13.6835 3.38686 13.7408 3.38686 13.8124 3.40115C13.7408 3.40115 13.6835 3.38686 13.6118 3.38686ZM14.056 3.444C14.056 3.444 14.142 3.47257 14.1706 3.48685C14.1706 3.48685 14.1993 3.48685 14.1993 3.50113C14.1563 3.48685 14.099 3.45828 14.0417 3.444H14.056ZM13.8554 3.40115C13.8554 3.40115 13.9843 3.42971 14.0417 3.444C13.9843 3.42971 13.9127 3.41543 13.8554 3.40115ZM15.8184 0.630062C15.8184 0.630062 15.7754 0.601494 15.7467 0.601494C15.7754 0.601494 15.7897 0.630062 15.8184 0.630062ZM12.3366 0.25868C12.3366 0.25868 12.3079 0.25868 12.2936 0.25868C12.3079 0.25868 12.3223 0.25868 12.3366 0.25868ZM11.7348 0.472939C11.7348 0.472939 11.6918 0.487223 11.6632 0.501507C11.6918 0.501507 11.7062 0.487223 11.7348 0.472939ZM11.4769 0.587211C11.4769 0.587211 11.4339 0.615778 11.4053 0.630062C11.4339 0.630062 11.4483 0.601495 11.4769 0.587211Z" fill="white"/>
</svg>
